<svg xmlns="http://www.w3.org/2000/svg" width="1100" height="480" viewBox="0 0 1100 480" role="img" aria-label="Traza de Colas"><rect width="100%" height="100%" fill="#fff"/><text x="24" y="40" font-family="DejaVu Sans" font-size="24" font-weight="bold" fill="#003772">3.1.2 Colas</text><rect x="0.0" y="70" width="550.0" height="74" fill="#003772" stroke="#d8dfeb"/><text x="12.0" y="94" font-family="DejaVu Sans" font-size="17" fill="#fff">Operación, C=3</text><rect x="550.0" y="70" width="550.0" height="74" fill="#003772" stroke="#d8dfeb"/><text x="562.0" y="94" font-family="DejaVu Sans" font-size="17" fill="#fff">Orden lógico</text><rect x="0.0" y="144" width="550.0" height="74" fill="#F3F3FA" stroke="#d8dfeb"/><text x="12.0" y="168" font-family="DejaVu Sans" font-size="17" fill="#403F3B">encolar 10,20,30</text><rect x="550.0" y="144" width="550.0" height="74" fill="#F3F3FA" stroke="#d8dfeb"/><text x="562.0" y="168" font-family="DejaVu Sans" font-size="17" fill="#403F3B">10,20,30</text><rect x="0.0" y="218" width="550.0" height="74" fill="#F3F3FA" stroke="#d8dfeb"/><text x="12.0" y="242" font-family="DejaVu Sans" font-size="17" fill="#403F3B">desencolar</text><rect x="550.0" y="218" width="550.0" height="74" fill="#F3F3FA" stroke="#d8dfeb"/><text x="562.0" y="242" font-family="DejaVu Sans" font-size="17" fill="#403F3B">20,30; sale 10</text><rect x="0.0" y="292" width="550.0" height="74" fill="#F3F3FA" stroke="#d8dfeb"/><text x="12.0" y="316" font-family="DejaVu Sans" font-size="17" fill="#403F3B">encolar 40</text><rect x="550.0" y="292" width="550.0" height="74" fill="#F3F3FA" stroke="#d8dfeb"/><text x="562.0" y="316" font-family="DejaVu Sans" font-size="17" fill="#403F3B">20,30,40; se reutiliza posición</text><rect x="0.0" y="366" width="550.0" height="74" fill="#F3F3FA" stroke="#d8dfeb"/><text x="12.0" y="390" font-family="DejaVu Sans" font-size="17" fill="#403F3B">vaciar</text><rect x="550.0" y="366" width="550.0" height="74" fill="#F3F3FA" stroke="#d8dfeb"/><text x="562.0" y="390" font-family="DejaVu Sans" font-size="17" fill="#403F3B">salen 20,30,40</text></svg>