<svg xmlns="http://www.w3.org/2000/svg" width="1100" height="406" viewBox="0 0 1100 406" role="img" aria-label="Traza de Caché y memoización"><rect width="100%" height="100%" fill="#fff"/><text x="24" y="40" font-family="DejaVu Sans" font-size="24" font-weight="bold" fill="#003772">4.2 Caché y memoización</text><rect x="0.0" y="70" width="366.6666666666667" height="74" fill="#003772" stroke="#d8dfeb"/><text x="12.0" y="94" font-family="DejaVu Sans" font-size="17" fill="#fff">Consulta sobre caché compartida</text><rect x="366.6666666666667" y="70" width="366.6666666666667" height="74" fill="#003772" stroke="#d8dfeb"/><text x="378.6666666666667" y="94" font-family="DejaVu Sans" font-size="17" fill="#fff">Resultado</text><rect x="733.3333333333334" y="70" width="366.6666666666667" height="74" fill="#003772" stroke="#d8dfeb"/><text x="745.3333333333334" y="94" font-family="DejaVu Sans" font-size="17" fill="#fff">Estados guardados</text><rect x="0.0" y="144" width="366.6666666666667" height="74" fill="#F3F3FA" stroke="#d8dfeb"/><text x="12.0" y="168" font-family="DejaVu Sans" font-size="17" fill="#403F3B">F(10), caché vacía</text><rect x="366.6666666666667" y="144" width="366.6666666666667" height="74" fill="#F3F3FA" stroke="#d8dfeb"/><text x="378.6666666666667" y="168" font-family="DejaVu Sans" font-size="17" fill="#403F3B">55</text><rect x="733.3333333333334" y="144" width="366.6666666666667" height="74" fill="#F3F3FA" stroke="#d8dfeb"/><text x="745.3333333333334" y="168" font-family="DejaVu Sans" font-size="17" fill="#403F3B">11</text><rect x="0.0" y="218" width="366.6666666666667" height="74" fill="#F3F3FA" stroke="#d8dfeb"/><text x="12.0" y="242" font-family="DejaVu Sans" font-size="17" fill="#403F3B">F(10), caché existente</text><rect x="366.6666666666667" y="218" width="366.6666666666667" height="74" fill="#F3F3FA" stroke="#d8dfeb"/><text x="378.6666666666667" y="242" font-family="DejaVu Sans" font-size="17" fill="#403F3B">55</text><rect x="733.3333333333334" y="218" width="366.6666666666667" height="74" fill="#F3F3FA" stroke="#d8dfeb"/><text x="745.3333333333334" y="242" font-family="DejaVu Sans" font-size="17" fill="#403F3B">11; sin nuevos estados</text><rect x="0.0" y="292" width="366.6666666666667" height="74" fill="#F3F3FA" stroke="#d8dfeb"/><text x="12.0" y="316" font-family="DejaVu Sans" font-size="17" fill="#403F3B">F(5), caché existente</text><rect x="366.6666666666667" y="292" width="366.6666666666667" height="74" fill="#F3F3FA" stroke="#d8dfeb"/><text x="378.6666666666667" y="316" font-family="DejaVu Sans" font-size="17" fill="#403F3B">5</text><rect x="733.3333333333334" y="292" width="366.6666666666667" height="74" fill="#F3F3FA" stroke="#d8dfeb"/><text x="745.3333333333334" y="316" font-family="DejaVu Sans" font-size="17" fill="#403F3B">11; sin nuevos estados</text></svg>